<mxfile host="app.diagrams.net" modified="2023-04-25T08:33:28.151Z" agent="Mozilla/5.0 (Windows NT 10.0; Win64; x64) AppleWebKit/537.36 (KHTML, like Gecko) Chrome/112.0.0.0 Safari/537.36 Edg/112.0.1722.48" version="21.2.1" etag="uk253FquiRWxuHc2kex1" type="github">
  <diagram name="Страница 1" id="_g2ERyo9Qr0fF0R6YY9q">
    <mxGraphModel>
      <root>
        <mxCell id="0" />
        <mxCell id="1" parent="0" />
      </root>
    </mxGraphModel>
  </diagram>
</mxfile>
